<svg width="33" height="27" viewBox="0 0 33 27" fill="none" xmlns="http://www.w3.org/2000/svg">
<path d="M10.3782 26.8193C22.8318 26.8193 29.6419 16.502 29.6419 7.55562C29.6419 7.26256 29.6358 6.97076 29.6228 6.68047C30.9445 5.72475 32.0936 4.53211 33 3.17457C31.787 3.71386 30.4813 4.07666 29.1119 4.24056C30.5097 3.40217 31.583 2.07635 32.0891 0.495735C30.7809 1.27119 29.3322 1.83465 27.7899 2.13904C26.5544 0.823036 24.7953 0 22.8476 0C19.1088 0 16.0768 3.03207 16.0768 6.76959C16.0768 7.30108 16.1362 7.81771 16.2523 8.31345C10.6252 8.0302 5.63537 5.33627 2.29639 1.23946C1.71506 2.24 1.3797 3.40242 1.3797 4.64264C1.3797 6.9914 2.5751 9.06523 4.39263 10.2783C3.28182 10.244 2.23849 9.93913 1.32632 9.43156C1.32532 9.46001 1.32532 9.4877 1.32532 9.51791C1.32532 12.797 3.65897 15.5347 6.75726 16.1551C6.18826 16.3099 5.58955 16.3932 4.97195 16.3932C4.53639 16.3932 4.11191 16.3504 3.69926 16.2711C4.56132 18.9613 7.06089 20.9188 10.0242 20.9737C7.70693 22.79 4.78766 23.8718 1.6151 23.8718C1.06927 23.8718 0.529976 23.8406 0 23.7782C2.99632 25.6987 6.55458 26.8195 10.3785 26.8195" fill="#1DA1F2"/>
</svg>
