<svg width="103" height="61" viewBox="0 0 103 61" fill="none" xmlns="http://www.w3.org/2000/svg">
<path d="M62.1896 34.6018C62.1896 33.9493 61.9593 33.4504 61.4988 33.105C61.0382 32.7519 60.2092 32.3835 59.0118 31.9997C57.8144 31.6082 56.8664 31.2244 56.1679 30.8483C54.2644 29.8198 53.3126 28.4343 53.3126 26.6919C53.3126 25.7861 53.5659 24.9802 54.0725 24.274C54.5867 23.5602 55.3198 23.0037 56.2716 22.6045C57.231 22.2054 58.3057 22.0058 59.4954 22.0058C60.6928 22.0058 61.7598 22.2246 62.6962 22.6621C63.6326 23.0919 64.358 23.7022 64.8723 24.4928C65.3942 25.2834 65.6552 26.1814 65.6552 27.187H62.2011C62.2011 26.4194 61.9593 25.8245 61.4758 25.4024C60.9922 24.9725 60.3129 24.7576 59.4378 24.7576C58.5935 24.7576 57.9372 24.938 57.469 25.2987C57.0008 25.6518 56.7667 26.12 56.7667 26.7034C56.7667 27.2484 57.0392 27.7051 57.5841 28.0735C58.1368 28.442 58.9466 28.7874 60.0135 29.1098C61.9785 29.7008 63.41 30.4338 64.3081 31.3089C65.2062 32.1839 65.6552 33.2739 65.6552 34.5788C65.6552 36.0295 65.1064 37.1693 64.0088 37.9983C62.9111 38.8196 61.4335 39.2303 59.576 39.2303C58.2865 39.2303 57.1121 38.9962 56.0528 38.5279C54.9936 38.052 54.1838 37.4034 53.6234 36.5821C53.0708 35.7608 52.7944 34.809 52.7944 33.7267H56.2601C56.2601 35.5766 57.3654 36.5015 59.576 36.5015C60.3973 36.5015 61.0382 36.3365 61.4988 36.0064C61.9593 35.6687 62.1896 35.2005 62.1896 34.6018ZM73.5191 39.2303C71.6922 39.2303 70.2031 38.6699 69.0517 37.5493C67.9081 36.4286 67.3362 34.9357 67.3362 33.0705V32.7481C67.3362 31.4969 67.578 30.3801 68.0616 29.3976C68.5451 28.4074 69.2283 27.6475 70.111 27.1179C71.0014 26.5806 72.0146 26.3119 73.1506 26.3119C74.8546 26.3119 76.1941 26.8492 77.1689 27.9238C78.1514 28.9985 78.6426 30.5221 78.6426 32.4948V33.8534H70.7097C70.8172 34.667 71.1396 35.3195 71.6769 35.8107C72.2218 36.302 72.9088 36.5476 73.7378 36.5476C75.0197 36.5476 76.0214 36.0832 76.7429 35.1544L78.3778 36.9851C77.8789 37.6913 77.2034 38.2439 76.3514 38.6431C75.4994 39.0345 74.5553 39.2303 73.5191 39.2303ZM73.1391 29.0061C72.479 29.0061 71.9417 29.2287 71.5272 29.6739C71.1204 30.1191 70.8594 30.7562 70.7443 31.5852H75.3728V31.3204C75.3574 30.5835 75.1578 30.0155 74.774 29.6164C74.3903 29.2095 73.8453 29.0061 73.1391 29.0061ZM80.0588 32.679C80.0588 30.7677 80.5117 29.2287 81.4174 28.062C82.3309 26.8953 83.559 26.3119 85.1018 26.3119C86.4681 26.3119 87.5312 26.7802 88.2911 27.7166L88.4293 26.5422H91.4458V38.5855C91.4458 39.6755 91.1964 40.6234 90.6975 41.4294C90.2062 42.2353 89.5115 42.8494 88.6135 43.2716C87.7154 43.6937 86.6638 43.9048 85.4587 43.9048C84.5453 43.9048 83.6549 43.7206 82.7876 43.3522C81.9202 42.9914 81.2639 42.5232 80.8187 41.9475L82.2925 39.9211C83.1215 40.8499 84.127 41.3142 85.3091 41.3142C86.1918 41.3142 86.8788 41.0763 87.37 40.6004C87.8613 40.1322 88.1069 39.4644 88.1069 38.597V37.9292C87.3393 38.7966 86.3299 39.2303 85.0788 39.2303C83.582 39.2303 82.3692 38.6469 81.4405 37.4802C80.5194 36.3058 80.0588 34.7515 80.0588 32.8172V32.679ZM83.3863 32.9208C83.3863 34.0491 83.6127 34.9357 84.0656 35.5804C84.5184 36.2175 85.1402 36.5361 85.9308 36.5361C86.944 36.5361 87.6694 36.1561 88.1069 35.3962V30.1575C87.6617 29.3976 86.944 29.0176 85.9538 29.0176C85.1555 29.0176 84.5261 29.3439 84.0656 29.9963C83.6127 30.6488 83.3863 31.6236 83.3863 32.9208ZM97.5251 39H94.1861V26.5422H97.5251V39ZM93.9904 23.3184C93.9904 22.8195 94.1554 22.4088 94.4854 22.0864C94.8232 21.764 95.2799 21.6028 95.8556 21.6028C96.4236 21.6028 96.8765 21.764 97.2142 22.0864C97.5519 22.4088 97.7208 22.8195 97.7208 23.3184C97.7208 23.825 97.5481 24.2395 97.2027 24.5619C96.8649 24.8842 96.4159 25.0454 95.8556 25.0454C95.2952 25.0454 94.8424 24.8842 94.497 24.5619C94.1592 24.2395 93.9904 23.825 93.9904 23.3184Z" fill="black"/>
<path d="M25.5918 37.7607C23.5013 37.1598 21.9779 36.4235 21.0215 35.5518C20.0736 34.6715 19.5996 33.5882 19.5996 32.3018C19.5996 30.846 20.1794 29.6442 21.3389 28.6963C22.5068 27.7399 24.0218 27.2617 25.8838 27.2617C27.1533 27.2617 28.2832 27.5072 29.2734 27.998C30.2721 28.4889 31.0423 29.166 31.584 30.0293C32.1341 30.8926 32.4092 31.8363 32.4092 32.8604H29.959C29.959 31.7432 29.6035 30.8672 28.8926 30.2324C28.1816 29.5892 27.1787 29.2676 25.8838 29.2676C24.682 29.2676 23.7425 29.5342 23.0654 30.0674C22.3968 30.5921 22.0625 31.3242 22.0625 32.2637C22.0625 33.0169 22.3799 33.6559 23.0146 34.1807C23.6579 34.6969 24.7454 35.1709 26.2773 35.6025C27.8177 36.0342 29.0195 36.5124 29.8828 37.0371C30.7546 37.5534 31.3978 38.1585 31.8125 38.8525C32.2357 39.5465 32.4473 40.3633 32.4473 41.3027C32.4473 42.8008 31.8633 44.0026 30.6953 44.9082C29.5273 45.8053 27.9658 46.2539 26.0107 46.2539C24.7412 46.2539 23.5563 46.0127 22.4561 45.5303C21.3558 45.0394 20.5052 44.3708 19.9043 43.5244C19.3118 42.6781 19.0156 41.7174 19.0156 40.6426H21.4658C21.4658 41.7598 21.8763 42.6442 22.6973 43.2959C23.5267 43.9391 24.6312 44.2607 26.0107 44.2607C27.2972 44.2607 28.2832 43.9984 28.9688 43.4736C29.6543 42.9489 29.9971 42.2337 29.9971 41.3281C29.9971 40.4225 29.6797 39.7243 29.0449 39.2334C28.4102 38.734 27.2591 38.2432 25.5918 37.7607Z" fill="black"/>
<path d="M31.524 4.0885L1 46.2681L43.6806 59.8694L31.524 4.0885Z" stroke="black" stroke-width="1.11016"/>
<path d="M35.3615 23.4461C50.5144 -0.545801 49.7147 1.02091 49.7147 1.02091" stroke="black" stroke-width="1.159"/>
<path d="M37.3203 35.7149C52.4733 11.723 51.6736 13.2897 51.6736 13.2897" stroke="black" stroke-width="1.159"/>
<path d="M32.2323 58.598C47.3852 34.6062 46.5855 36.1729 46.5855 36.1729" stroke="black" stroke-width="1.159"/>
</svg>
