<svg width="47" height="26" viewBox="0 0 47 26" fill="none" xmlns="http://www.w3.org/2000/svg">
<path d="M29.0174 13.511C28.1664 13.2664 27.5463 12.9667 27.157 12.6119C26.7712 12.2536 26.5782 11.8126 26.5782 11.289C26.5782 10.6964 26.8142 10.2072 27.2862 9.82136C27.7616 9.43207 28.3783 9.23742 29.1362 9.23742C29.653 9.23742 30.1129 9.33733 30.516 9.53714C30.9225 9.73696 31.236 10.0126 31.4565 10.364C31.6804 10.7154 31.7924 11.0995 31.7924 11.5163H30.795C30.795 11.0616 30.6503 10.705 30.3609 10.4466C30.0716 10.1848 29.6633 10.0539 29.1362 10.0539C28.647 10.0539 28.2646 10.1624 27.989 10.3795C27.7168 10.5931 27.5808 10.8911 27.5808 11.2735C27.5808 11.5801 27.71 11.8402 27.9683 12.0538C28.2302 12.2639 28.6729 12.4569 29.2964 12.6326C29.9234 12.8083 30.4126 13.0029 30.764 13.2165C31.1189 13.4266 31.3807 13.673 31.5495 13.9555C31.7218 14.238 31.8079 14.5704 31.8079 14.9528C31.8079 15.5626 31.5702 16.0518 31.0948 16.4204C30.6193 16.7856 29.9837 16.9682 29.1879 16.9682C28.6711 16.9682 28.1888 16.87 27.741 16.6736C27.2931 16.4738 26.9469 16.2017 26.7023 15.8572C26.4611 15.5126 26.3405 15.1216 26.3405 14.6841H27.3379C27.3379 15.1389 27.505 15.4989 27.8391 15.7641C28.1768 16.026 28.6263 16.1569 29.1879 16.1569C29.7115 16.1569 30.1129 16.0501 30.392 15.8365C30.671 15.6229 30.8105 15.3318 30.8105 14.9632C30.8105 14.5945 30.6813 14.3103 30.423 14.1105C30.1646 13.9072 29.696 13.7074 29.0174 13.511ZM35.2547 16.9682C34.4968 16.9682 33.8801 16.7201 33.4047 16.2241C32.9293 15.7245 32.6915 15.0579 32.6915 14.2242V14.0485C32.6915 13.4938 32.7966 12.9995 33.0068 12.5654C33.2204 12.1278 33.5166 11.7868 33.8956 11.5422C34.278 11.2941 34.6914 11.1701 35.1358 11.1701C35.8627 11.1701 36.4277 11.4095 36.8308 11.8884C37.2339 12.3673 37.4354 13.0529 37.4354 13.9451V14.343H33.6476C33.6613 14.8942 33.8215 15.3404 34.1281 15.6815C34.4382 16.0191 34.8309 16.1879 35.3064 16.1879C35.644 16.1879 35.9299 16.119 36.1642 15.9812C36.3985 15.8434 36.6034 15.6608 36.7791 15.4334L37.3631 15.8882C36.8946 16.6082 36.1918 16.9682 35.2547 16.9682ZM35.1358 11.9556C34.75 11.9556 34.4261 12.0968 34.1643 12.3793C33.9025 12.6584 33.7406 13.0511 33.6786 13.5576H36.4794V13.4852C36.4519 12.9995 36.3209 12.6239 36.0867 12.3587C35.8524 12.09 35.5355 11.9556 35.1358 11.9556ZM38.3191 14.0226C38.3191 13.151 38.5206 12.4586 38.9237 11.9453C39.3268 11.4285 39.8608 11.1701 40.5257 11.1701C41.2078 11.1701 41.7401 11.4113 42.1225 11.8936L42.169 11.2735H43.0423V16.7305C43.0423 17.4539 42.827 18.0241 42.3964 18.441C41.9692 18.8578 41.3938 19.0662 40.6704 19.0662C40.2673 19.0662 39.8728 18.9801 39.487 18.8079C39.1011 18.6356 38.8066 18.3996 38.6033 18.0999L39.0994 17.5263C39.5094 18.0327 40.0106 18.2859 40.6032 18.2859C41.0683 18.2859 41.43 18.155 41.6884 17.8932C41.9502 17.6314 42.0811 17.2627 42.0811 16.7873V16.3067C41.6987 16.7477 41.1768 16.9682 40.5153 16.9682C39.8608 16.9682 39.3302 16.7046 38.9237 16.1775C38.5206 15.6504 38.3191 14.9321 38.3191 14.0226ZM39.2803 14.1312C39.2803 14.7616 39.4095 15.2577 39.6678 15.6194C39.9262 15.9777 40.288 16.1569 40.753 16.1569C41.3559 16.1569 41.7986 15.883 42.0811 15.3352V12.7824C41.7883 12.2484 41.349 11.9814 40.7634 11.9814C40.2983 11.9814 39.9348 12.1623 39.673 12.524C39.4112 12.8858 39.2803 13.4215 39.2803 14.1312ZM45.5279 16.8648H44.5719V11.2735H45.5279V16.8648ZM44.4944 9.79036C44.4944 9.63533 44.5409 9.50441 44.6339 9.39762C44.7304 9.29082 44.8716 9.23742 45.0577 9.23742C45.2437 9.23742 45.385 9.29082 45.4814 9.39762C45.5779 9.50441 45.6261 9.63533 45.6261 9.79036C45.6261 9.94539 45.5779 10.0746 45.4814 10.1779C45.385 10.2813 45.2437 10.333 45.0577 10.333C44.8716 10.333 44.7304 10.2813 44.6339 10.1779C44.5409 10.0746 44.4944 9.94539 44.4944 9.79036Z" fill="white"/>
<path d="M10.8918 15.7578C10.0409 15.5132 9.42076 15.2135 9.03147 14.8587C8.64562 14.5004 8.4527 14.0594 8.4527 13.5358C8.4527 12.9432 8.68868 12.454 9.16066 12.0682C9.63608 11.6789 10.2528 11.4842 11.0107 11.4842C11.5274 11.4842 11.9874 11.5841 12.3904 11.7839C12.7969 11.9838 13.1104 12.2594 13.3309 12.6108C13.5549 12.9622 13.6668 13.3463 13.6668 13.7631H12.6695C12.6695 13.3084 12.5248 12.9518 12.2354 12.6934C11.946 12.4316 11.5378 12.3007 11.0107 12.3007C10.5215 12.3007 10.1391 12.4092 9.86346 12.6263C9.5913 12.8399 9.45522 13.1379 9.45522 13.5203C9.45522 13.8269 9.58441 14.087 9.84279 14.3006C10.1046 14.5107 10.5473 14.7036 11.1709 14.8793C11.7979 15.055 12.2871 15.2497 12.6385 15.4633C12.9933 15.6734 13.2551 15.9198 13.424 16.2023C13.5962 16.4848 13.6823 16.8172 13.6823 17.1996C13.6823 17.8094 13.4446 18.2986 12.9692 18.6672C12.4938 19.0324 11.8582 19.215 11.0623 19.215C10.5456 19.215 10.0633 19.1168 9.61541 18.9204C9.16755 18.7206 8.82132 18.4485 8.57672 18.1039C8.33556 17.7594 8.21498 17.3684 8.21498 16.9309H9.21234C9.21234 17.3856 9.37942 17.7457 9.7136 18.0109C10.0512 18.2728 10.5008 18.4037 11.0623 18.4037C11.586 18.4037 11.9874 18.2969 12.2664 18.0833C12.5455 17.8697 12.685 17.5786 12.685 17.2099C12.685 16.8413 12.5558 16.5571 12.2974 16.3573C12.039 16.154 11.5705 15.9542 10.8918 15.7578Z" fill="white"/>
<path d="M13.577 2.27258L1 19.6521L18.5859 25.2563L13.577 2.27258Z" stroke="white" stroke-width="1.11016" stroke-linejoin="round"/>
<path d="M15.1581 10.2486C21.4017 0.363075 21.0722 1.00861 21.0722 1.00861" stroke="white" stroke-width="1.159"/>
<path d="M15.9653 15.3037C22.2088 5.41819 21.8793 6.06373 21.8793 6.06373" stroke="white" stroke-width="1.159"/>
<path d="M13.8688 24.7325C20.1123 14.847 19.7828 15.4925 19.7828 15.4925" stroke="white" stroke-width="1.159"/>
</svg>
