<svg width="512" height="509" viewBox="0 0 512 509" fill="none" xmlns="http://www.w3.org/2000/svg">
<path d="M256 -3L95.6021 253L256 509C397.385 509 512 394.385 512 253C512 111.615 397.385 -3 256 -3Z" fill="#0D77D5"/>
<path d="M0 253C0 394.385 114.615 509 256 509V-3C114.615 -3 0 111.615 0 253Z" fill="#2DA4FC"/>
<path d="M256 57L190.212 162L256 267C313.99 267 361 219.99 361 162C361 104.01 313.99 57 256 57Z" fill="#2B0183"/>
<path d="M151 162C151 219.99 198.01 267 256 267V57C198.01 57 151 104.01 151 162Z" fill="#4B00E0"/>
<path d="M424.649 332.443C404.716 309.918 376.049 297 346 297H256L196 373L256 449C326.322 449 391.636 410.99 426.454 349.802L431.76 340.477L424.649 332.443Z" fill="#2B0183"/>
<path d="M166 297C135.951 297 107.284 309.918 87.351 332.443L80.241 340.478L85.547 349.803C120.364 410.99 185.678 449 256 449V297H166Z" fill="#4B00E0"/>
</svg>
